# xmcd CD database file generated by MAGIX-FreeDB-MP3_deluxe_MX v3.0beta1
#
# Track frame offsets:
#	183
#	10720
#	21503
#	31468
#	42280
#	54348
#	65748
#	79295
#	91215
#	103798
#	116903
#	129048
#	140008
#	151653
#	161218
#	173210
#
# Disc length: 2503
#
# Revision: 2
# Processed by: cddbd v1.5.2PL0 Copyright (c) Steve Scherf et al.
# Submitted via: MAGIX-FreeDB-MP3_deluxe_MX v3.0beta1
#
DISCID=d309c510
DTITLE=Berry, Chuck - The Best Of
DYEAR=1987
DGENRE=Rock and Roll
TTITLE0=Maybellene
TTITLE1=Thirty days
TTITLE2=Back to Memphis
TTITLE3=Roll over Beethoven
TTITLE4=Schoolday
TTITLE5=Rock and roll music
TTITLE6=Sweet little sixteen
TTITLE7=Johnny B. Goode
TTITLE8=Carol
TTITLE9=Too much monkey business
TTITLE10=You can't catch me
TTITLE11=Back in the USA
TTITLE12=Baby Doll
TTITLE13=Beautiful Delilah
TTITLE14=Around and around
TTITLE15=Reelin' and rockin'
EXTD=
EXTT0=
EXTT1=
EXTT2=
EXTT3=
EXTT4=
EXTT5=
EXTT6=
EXTT7=
EXTT8=
EXTT9=
EXTT10=
EXTT11=
EXTT12=
EXTT13=
EXTT14=
EXTT15=
PLAYORDER=
